<?xml version="1.0" encoding="UTF-8" standalone="no"?>
<!-- Generator: Adobe Illustrator 27.5.0, SVG Export Plug-In . SVG Version: 6.00 Build 0)  -->

<svg
   version="1.1"
   x="0px"
   y="0px"
   viewBox="0 0 299.90033 116.60501"
   xml:space="preserve"
   id="svg3"
   width="299.90033"
   height="116.60501"
   xmlns="http://www.w3.org/2000/svg"
   xmlns:svg="http://www.w3.org/2000/svg"><defs
   id="defs3" />

<g
   id="OBJECTS"
   transform="translate(-69.627993,-68.10399)">
	<g
   id="XMLID_17_">
		
			
		
		
		
		
		
			
		
			
		
			
		
			<g
   id="g1"><rect
     id="XMLID_12_"
     x="70.302628"
     y="68.778625"
     style="fill:none;stroke:#211915;stroke-width:1.34927;stroke-miterlimit:10"
     width="298.55106"
     height="115.25574" /><g
     id="XMLID_2_"
     transform="translate(135.64341)">
			<path
   id="XMLID_52_"
   style="fill:none;stroke:#211915;stroke-miterlimit:10"
   d="m 221.083,88.349 c 0,0 -0.949,1.199 0.466,2.365 1.416,1.166 4.331,-0.3 3.465,-3.765 -0.866,-3.465 -3.598,-3.231 -4.564,-3.165 -0.966,0.067 -3.831,1.066 -4.064,4.331 -0.233,3.265 2.392,5.95 4.824,6.583 2.432,0.633 7.936,-0.116 8.669,-5.432" />
			<path
   id="XMLID_13_"
   style="fill:none;stroke:#211915;stroke-miterlimit:10"
   d="m 215.007,81.245 c 0,0 -1.199,0.95 -2.365,-0.466 -1.166,-1.416 0.3,-4.331 3.765,-3.465 3.465,0.866 3.232,3.598 3.165,4.564 -0.067,0.966 -1.066,3.831 -4.331,4.064 -3.265,0.233 -5.95,-2.392 -6.583,-4.824 -0.633,-2.432 0.116,-7.936 5.432,-8.668" />
			<path
   id="XMLID_50_"
   style="fill:none;stroke:#211915;stroke-miterlimit:10"
   d="m 208.826,76.93 c 0.292,-5.223 -5.991,-4.438 -5.991,-4.438 h 27.071 v 27.779 c 0,0 0.999,-5.383 -4.305,-5.835" />
			<path
   id="XMLID_15_"
   style="fill:none;stroke:#211915;stroke-miterlimit:10"
   d="m 229.907,72.492 c 0,0 -6.782,10.695 -15.817,-0.042" />
			<path
   id="XMLID_16_"
   style="fill:none;stroke:#211915;stroke-miterlimit:10"
   d="m 229.878,88.462 c 0,0 -7.548,-7.37 -0.361,-15.425" />
		</g><g
     id="XMLID_18_">
			<path
   id="XMLID_24_"
   style="fill:none;stroke:#211915;stroke-miterlimit:10"
   d="m 83.663,88.349 c 0,0 0.95,1.199 -0.466,2.365 -1.416,1.166 -4.331,-0.3 -3.465,-3.765 0.866,-3.465 3.598,-3.231 4.564,-3.165 0.966,0.066 3.831,1.066 4.064,4.331 0.233,3.265 -2.392,5.95 -4.824,6.583 -2.432,0.633 -7.936,-0.116 -8.669,-5.432" />
			<path
   id="XMLID_23_"
   style="fill:none;stroke:#211915;stroke-miterlimit:10"
   d="m 89.738,81.245 c 0,0 1.199,0.95 2.365,-0.466 1.166,-1.416 -0.3,-4.331 -3.765,-3.465 -3.465,0.866 -3.232,3.598 -3.165,4.564 0.067,0.966 1.066,3.831 4.331,4.064 3.265,0.233 5.95,-2.392 6.583,-4.824 0.633,-2.432 -0.116,-7.936 -5.432,-8.668" />
			<path
   id="XMLID_22_"
   style="fill:none;stroke:#211915;stroke-miterlimit:10"
   d="m 95.919,76.93 c -0.292,-5.223 5.99,-4.438 5.99,-4.438 h -27.07 v 27.779 c 0,0 -1,-5.383 4.304,-5.835" />
			<path
   id="XMLID_21_"
   style="fill:none;stroke:#211915;stroke-miterlimit:10"
   d="m 74.839,72.492 c 0,0 6.782,10.695 15.817,-0.042" />
			<path
   id="XMLID_19_"
   style="fill:none;stroke:#211915;stroke-miterlimit:10"
   d="m 74.868,88.462 c 0,0 7.548,-7.37 0.361,-15.425" />
		</g><g
     id="XMLID_31_">
			<path
   id="XMLID_36_"
   style="fill:none;stroke:#211915;stroke-miterlimit:10"
   d="m 83.663,164.464 c 0,0 0.95,-1.199 -0.466,-2.365 -1.416,-1.166 -4.331,0.3 -3.465,3.764 0.866,3.465 3.598,3.232 4.564,3.165 0.966,-0.067 3.831,-1.066 4.064,-4.331 0.233,-3.265 -2.392,-5.95 -4.824,-6.583 -2.432,-0.633 -7.936,0.116 -8.669,5.432" />
			<path
   id="XMLID_35_"
   style="fill:none;stroke:#211915;stroke-miterlimit:10"
   d="m 89.738,171.568 c 0,0 1.199,-0.949 2.365,0.466 1.166,1.416 -0.3,4.331 -3.765,3.465 -3.465,-0.866 -3.232,-3.598 -3.165,-4.564 0.067,-0.966 1.066,-3.831 4.331,-4.064 3.265,-0.233 5.95,2.392 6.583,4.824 0.633,2.432 -0.116,7.936 -5.432,8.669" />
			<path
   id="XMLID_34_"
   style="fill:none;stroke:#211915;stroke-miterlimit:10"
   d="m 95.919,175.884 c -0.292,5.223 5.99,4.437 5.99,4.437 h -27.07 v -27.779 c 0,0 -1,5.383 4.304,5.835" />
			<path
   id="XMLID_33_"
   style="fill:none;stroke:#211915;stroke-miterlimit:10"
   d="m 74.839,180.321 c 0,0 6.782,-10.695 15.817,0.042" />
			<path
   id="XMLID_32_"
   style="fill:none;stroke:#211915;stroke-miterlimit:10"
   d="m 74.868,164.351 c 0,0 7.548,7.37 0.361,15.425" />
		</g><g
     id="XMLID_25_"
     transform="translate(135.6434)">
			<path
   id="XMLID_30_"
   style="fill:none;stroke:#211915;stroke-miterlimit:10"
   d="m 221.083,164.464 c 0,0 -0.949,-1.199 0.466,-2.365 1.416,-1.166 4.331,0.3 3.465,3.764 -0.866,3.465 -3.598,3.232 -4.564,3.165 -0.966,-0.067 -3.831,-1.066 -4.064,-4.331 -0.233,-3.265 2.392,-5.95 4.824,-6.583 2.432,-0.633 7.936,0.116 8.669,5.432" />
			<path
   id="XMLID_29_"
   style="fill:none;stroke:#211915;stroke-miterlimit:10"
   d="m 215.007,171.568 c 0,0 -1.199,-0.949 -2.365,0.466 -1.166,1.416 0.3,4.331 3.765,3.465 3.465,-0.866 3.232,-3.598 3.165,-4.564 -0.067,-0.966 -1.066,-3.831 -4.331,-4.064 -3.265,-0.233 -5.95,2.392 -6.583,4.824 -0.633,2.432 0.116,7.936 5.432,8.669" />
			<path
   id="XMLID_28_"
   style="fill:none;stroke:#211915;stroke-miterlimit:10"
   d="m 208.826,175.884 c 0.292,5.223 -5.991,4.437 -5.991,4.437 h 27.071 v -27.779 c 0,0 0.999,5.383 -4.305,5.835" />
			<path
   id="XMLID_27_"
   style="fill:none;stroke:#211915;stroke-miterlimit:10"
   d="m 229.907,180.321 c 0,0 -6.782,-10.695 -15.817,0.042" />
			<path
   id="XMLID_26_"
   style="fill:none;stroke:#211915;stroke-miterlimit:10"
   d="m 229.878,164.351 c 0,0 -7.548,7.37 -0.361,15.425" />
		</g><line
     id="XMLID_37_"
     style="fill:none;stroke:#211915;stroke-miterlimit:10"
     x1="74.764"
     y1="103.925"
     x2="74.764"
     y2="145.838" /><path
     style="color:#000000;fill:#211915;stroke-miterlimit:10;-inkscape-stroke:none"
     d="m 105.98828,72.542969 v 1.013672 l 228.46963,-0.16976 v -1.013672 z"
     id="XMLID_39_" /><line
     id="XMLID_40_"
     style="fill:none;stroke:#211915;stroke-width:1.066;stroke-miterlimit:10;stroke-dasharray:none"
     x1="331.08115"
     y1="180.36301"
     x2="105.988"
     y2="180.36301" /><line
     id="XMLID_38_"
     style="fill:none;stroke:#211915;stroke-miterlimit:10"
     x1="365.70444"
     y1="103.925"
     x2="365.70444"
     y2="145.838" /></g>
	</g>
	
	
	
	
	
	
</g>

</svg>
