<?xml version="1.0" encoding="UTF-8" standalone="no"?>
<!-- Created with Inkscape (http://www.inkscape.org/) -->

<svg
   width="43.602558mm"
   height="47.548882mm"
   viewBox="0 0 43.602558 47.548882"
   version="1.1"
   id="svg1"
   xml:space="preserve"
   xmlns="http://www.w3.org/2000/svg"
   xmlns:svg="http://www.w3.org/2000/svg"><defs
     id="defs1" /><g
     id="layer1"
     transform="translate(-226.07955,-160.63845)"><path
       id="path6"
       style="fill:#000000"
       d="m 244.72563,160.65118 c -6.96865,1.04142 -8.25028,9.20362 -7.11963,14.92609 0.30572,4.54511 -8.45495,7.85656 -1.18645,10.62822 5.77941,-1.73531 11.81547,-1.61757 17.78842,-1.35928 3.88441,4.12491 12.97309,-1.82197 6.23759,-4.67138 -4.004,-5.66203 1.64373,-15.40028 -6.46631,-18.87074 -2.90289,-1.28666 -6.18926,-0.23413 -9.25362,-0.65291 z m -15.97277,40.85592 c -1.7826,3.45328 -5.34309,7.76871 0.71037,6.43062 3.68324,-1.25203 7.59671,-8.52286 7.30133,-12.43809 -1.06602,-6.3305 -3.38817,-4.95041 -5.56979,-0.25208 -0.81397,2.08652 -1.62794,4.17303 -2.44191,6.25955 z m 19.51209,-34.92037 c 1.22968,5.87237 11.80437,5.22706 6.28984,11.76689 -3.87118,6.78884 -14.27439,2.7012 -14.13102,-4.56193 1.14846,-2.16118 7.3328,-2.56987 7.84118,-7.20496 z m 11.69334,21.37751 c -7.32606,1.77375 -15.03201,2.2772 -22.34642,0.11799 -4.24194,2.06651 4.50636,4.71801 7.21461,4.14982 4.54316,-0.44959 14.27831,1.70408 15.13181,-4.26781 z m 1.89808,1.85621 c -5.08092,6.23054 -0.58412,12.42604 2.8112,18.11725 2.89703,-0.0356 7.23255,0.8979 3.67597,-3.25065 -2.23955,-4.91618 -3.90191,-10.12155 -6.48717,-14.8666 z m -23.67918,3.19826 c 2.0122,4.37517 1.58503,11.5138 6.19227,13.60169 4.56386,2.83336 11.22906,-0.31369 11.38709,-5.86849 1.10807,-3.74431 4.50621,-9.8148 -2.18189,-6.86148 -5.03122,-0.34563 -4.08073,1.87531 -4.68165,4.60605 -3.91085,0.0301 1.43162,-5.65755 -4.25092,-4.33668 -2.17978,-0.2132 -4.34789,-0.57541 -6.4649,-1.14109 z m 10.2185,5.73608 c 3.68671,3.02331 -4.52592,2.64431 0,0 z m -0.34985,2.62465 c 4.64115,2.32051 -4.40685,3.39911 0,0 z m 0.14625,2.37091 c 4.71112,2.54847 -4.66782,2.83839 0,0 z m -5.92367,3.99769 c -0.64288,0.45603 1.29713,0.082 0,0 z m 11.53211,0.16123 0.12814,0.0321 z" /></g></svg>
