<?xml version="1.0" encoding="UTF-8" standalone="no"?>
<!-- Created with Inkscape (http://www.inkscape.org/) -->

<svg
   width="49.348419mm"
   height="53.585388mm"
   viewBox="0 0 49.348419 53.585388"
   version="1.1"
   id="svg1"
   xml:space="preserve"
   xmlns="http://www.w3.org/2000/svg"
   xmlns:svg="http://www.w3.org/2000/svg"><defs
     id="defs1" /><g
     id="layer1"
     transform="translate(-154.72959,-154.51168)"><path
       id="char_icon1"
       style="fill:#000000"
       d="m 179.20818,154.67531 c -3.50255,-1.26156 -11.91023,5.16636 -8.16346,5.7841 5.69233,-0.99472 11.57745,-0.91936 17.24337,0.0109 0.78787,-3.2492 -5.71436,-6.23246 -9.07991,-5.79498 z m 0.0677,6.18205 c -4.62417,-0.0659 -11.04015,-0.34775 -10.95491,5.25107 -3.30152,2.55576 -9.18268,6.01327 -2.32143,8.34242 5.73997,1.45496 9.97417,6.06151 10.41433,10.4564 2.99093,3.08378 9.20723,-1.12198 5.94425,-3.83828 4.1173,-4.30348 9.80341,-5.98188 14.41952,-9.70837 -4.46241,-2.18409 -6.99046,-6.66357 -8.6762,-9.65225 -2.87815,-0.73462 -5.86686,-0.89201 -8.82556,-0.85099 z m 2.38797,3.51297 c 3.60491,2.9508 7.61474,5.31359 4.25192,10.5201 -3.09294,2.60094 -8.01899,-3.08939 -11.60651,1.43631 -3.50554,-2.73174 -4.28548,-9.25447 1.74686,-7.87534 2.41327,-0.4822 4.07911,-2.30212 5.60773,-4.08107 z m 4.36252,18.93218 c -2.50618,6.57018 -11.20907,5.01587 -13.98943,0.24963 -10.26802,1.56345 -15.5925,12.20178 -17.02527,21.5354 -1.57588,4.37021 3.85795,2.43009 6.238,2.85016 0.91488,-2.3826 3.1048,-12.7754 5.52272,-10.79549 0.11071,3.59469 0.048,7.19651 0.0681,10.79549 3.02027,-0.0336 6.42197,0.76753 7.97249,-2.65653 5.71986,-6.3019 10.65523,-13.30824 14.7238,-20.78132 -1.07738,-0.64741 -2.35308,-0.75909 -3.51038,-1.19734 z m 6.11436,1.91823 c -4.81407,8.00388 -9.97043,15.88002 -16.41192,22.71696 5.41638,0 10.83276,0 16.24914,0 0.51939,-3.42146 -1.05664,-12.80394 0.90356,-12.12369 4.77648,2.9953 1.0214,13.71059 7.92399,12.12369 6.72646,1.19287 1.13268,-9.4383 0.31028,-12.71906 -1.98724,-4.00721 -4.70126,-8.1854 -8.97505,-9.9979 z" /></g></svg>
