<?xml version="1.0" encoding="UTF-8" standalone="no"?>
<!-- Created with Inkscape (http://www.inkscape.org/) -->

<svg
   width="46.378563mm"
   height="61.63739mm"
   viewBox="0 0 46.378563 61.63739"
   version="1.1"
   id="svg1"
   xml:space="preserve"
   xmlns="http://www.w3.org/2000/svg"
   xmlns:svg="http://www.w3.org/2000/svg"><defs
     id="defs1" /><g
     id="layer1"
     transform="translate(-19.946071,-21.828497)"><path
       id="path60"
       style="fill:#000000"
       d="m 41.893567,21.835876 c 0.762632,1.168412 -0.287917,3.179871 -1.622151,1.917556 -1.775613,2.466701 2.576884,1.47791 1.881868,3.49142 1.691888,1.464568 1.874243,-1.766207 2.500638,-1.260088 2.479433,-0.707489 0.93152,-2.801477 -0.902672,-2.209455 0.603872,-1.811132 -0.246826,-1.991437 -1.857683,-1.939433 z m -0.06873,7.250204 c -2.545961,-0.256917 -5.05378,1.932502 -4.241876,4.591093 -0.776511,3.001609 0.772861,6.47765 4.253602,4.926173 0.295873,-3.002792 -0.07787,-6.385548 -0.01173,-9.517266 z m 3.398759,0.132808 c -2.205831,0.26266 -0.476695,4.185924 -1.097165,5.896244 -1.185655,2.863733 2.475581,5.465144 4.100067,2.473274 0.150814,-2.59973 1.289449,-6.326729 -1.440039,-8.023441 -0.477896,-0.255515 -1.026791,-0.344311 -1.562863,-0.346077 z m -9.023222,0.185002 c -3.330764,0.148834 -6.574742,3.135278 -5.32351,6.643906 -0.606722,3.207322 4.731072,5.684493 5.059857,1.795815 -0.765174,-2.762228 -1.624411,-5.897968 0.263653,-8.439721 z m 13.710791,0.05788 c 1.553091,2.537805 0.97528,5.648595 0.141958,8.317377 -0.163807,3.437866 5.180587,2.152493 4.78004,-0.91791 1.435724,-2.949409 -0.195055,-6.512081 -3.485771,-7.126763 -0.469015,-0.13473 -0.950433,-0.226398 -1.436227,-0.272704 z m -6.216158,11.175545 c -3.623223,-0.0035 -7.338359,0.170619 -10.755416,1.490865 -0.287817,4.254187 4.945278,0.892552 7.279159,1.31424 4.070506,-0.339928 8.142075,0.245332 12.149985,0.908724 1.892518,-3.508584 -4.083022,-3.396076 -6.273024,-3.622245 -0.799221,-0.05216 -1.599878,-0.08116 -2.400704,-0.09158 z m -0.939994,4.67465 c -3.525046,0.330842 -7.104055,0.645885 -10.462337,1.843229 -1.031622,1.691575 -0.737029,4.101008 -2.203465,5.419028 0.18455,2.776977 4.026517,1.099384 4.644991,1.171571 0.884667,4.261243 3.188433,8.647665 7.325186,10.50821 3.818012,0.369889 6.429578,-3.298425 7.88195,-6.361155 1.270474,-1.592849 0.327393,-5.943113 2.914618,-3.649546 2.813291,0.882855 4.061557,-2.570068 1.708954,-4.1218 0.443803,-3.638554 -3.804178,-4.098629 -6.553968,-4.31048 -1.806143,-0.72802 -6.567449,-0.698905 -3.54001,1.96113 1.468327,2.472953 4.834372,-0.41468 5.383995,-0.34072 0.614281,2.403653 0.741403,6.642951 -2.127052,7.382629 -1.598802,-2.351259 -4.819103,-3.399962 -7.296661,-1.599554 -1.80751,1.74303 -4.225647,1.545569 -4.449032,-1.296878 -0.224514,-1.1752 -0.380694,-5.217733 0.705768,-4.584823 1.944314,3.254142 5.434707,0.863713 6.067063,-2.020841 z m 0.19172,9.269202 c 1.801903,-0.71386 3.221651,3.142621 0.665075,1.58905 -1.273051,0.09043 -4.109492,0.706136 -2.059379,-1.213871 0.413995,-0.261932 0.908161,-0.377157 1.394304,-0.375179 z m -14.741219,3.996138 c -3.151177,0.866439 1.946734,3.962208 1.098891,0.66253 -0.21282,-0.390487 -0.635526,-0.698947 -1.098891,-0.66253 z m 29.483988,0.0016 c -3.633199,1.7505 3.528852,3.051954 0.36201,0.04373 z m -25.092525,0.535368 c -3.029326,0.948912 2.012321,3.653167 0.937658,0.508452 -0.18834,-0.32041 -0.556451,-0.551255 -0.937658,-0.508452 z m 20.757906,0.0021 c -3.005002,0.561267 1.710303,3.749547 0.856681,0.563939 -0.154592,-0.321276 -0.486008,-0.578775 -0.856681,-0.563939 z M 35.2764,63.598702 c -2.895036,0.809193 1.667099,3.609073 0.920702,0.530478 -0.167851,-0.334443 -0.539803,-0.571134 -0.920702,-0.530478 z m 19.715075,0.04858 c -3.195368,1.196207 2.373746,3.528121 0.90255,0.451648 -0.2258,-0.251432 -0.536049,-0.502544 -0.90255,-0.451648 z m -4.318599,0.03204 c -2.996385,0.687708 1.873526,3.57962 0.959997,0.442501 -0.19918,-0.319801 -0.593873,-0.477845 -0.959997,-0.442501 z m -19.825663,0.02997 c -3.214974,1.249171 2.763018,3.459365 0.582494,0.223681 L 31.15789,63.773699 Z m -4.060218,0.169498 c -3.190168,0.317993 1.403681,3.967166 0.938488,0.641844 -0.153952,-0.368258 -0.527919,-0.655237 -0.938488,-0.641844 z m 32.352548,0.06511 c -3.27154,1.230736 2.823218,3.178321 0.643575,0.116046 l -0.323377,-0.09063 z m -35.2764,1.919262 c -1.369601,5.831655 -2.664434,11.680646 -3.917072,17.538465 2.355929,0 4.711857,0 7.067786,0 0.270852,-4.286009 0.531701,-8.572642 0.794267,-12.859164 -1.428995,-1.451712 -3.072323,-2.789564 -3.944981,-4.679301 z m 38.554236,0.326079 c -1.241802,1.885378 -4.093481,3.304228 -4.045569,5.541643 0.279624,3.889472 0.537518,7.780458 0.805456,11.670743 2.382456,0 4.764912,0 7.147368,0 -1.356428,-5.725215 -2.463557,-11.507534 -3.907255,-17.212386 z m -16.079639,0.33538 c -3.011325,0.483545 1.471108,3.815572 1.024771,0.74585 -0.164413,-0.411078 -0.565518,-0.748717 -1.024771,-0.74585 z m -7.19491,0.03772 c -2.379162,1.385969 2.189274,3.170455 1.313314,0.531245 -0.297455,-0.408801 -0.831152,-0.560029 -1.313314,-0.531245 z m -4.846732,2.343527 c -3.104964,0.776464 2.079311,3.49161 0.87621,0.486593 -0.230212,-0.247539 -0.533598,-0.445638 -0.87621,-0.486593 z m 17.180863,0.109037 c -2.85807,0.648328 1.275378,3.558161 1.039071,0.658122 -0.141779,-0.421123 -0.591312,-0.724329 -1.039071,-0.658122 z m -8.638232,1.812809 c -3.065615,1.267767 2.579868,3.297256 1.14991,0.385466 -0.297234,-0.299715 -0.737233,-0.422805 -1.14991,-0.385466 z m 11.494389,1.830896 c -2.472442,1.736606 -6.511956,1.867032 -8.452225,3.423697 0.509145,2.198407 -0.697491,6.163985 0.836003,7.319317 2.737004,0 5.474009,0 8.211013,0 -0.19403,-3.581215 -0.32471,-7.166259 -0.594791,-10.743014 z m -22.080306,0.311609 c -1.118287,2.831438 -0.435129,5.95064 -0.979894,8.891052 -0.308584,2.381516 2.303997,1.3513 3.720276,1.540353 1.599736,0 3.199473,0 4.799209,0 -0.277039,-2.52161 0.8186,-6.058906 -0.167694,-7.923113 -2.515373,-0.646767 -5.014548,-1.405718 -7.371897,-2.508292 z m 10.602453,2.641182 c -3.077466,1.228668 2.477188,3.114884 0.889721,0.314486 -0.247643,-0.205393 -0.56941,-0.313428 -0.889721,-0.314486 z m 0.149862,4.67155 c -2.946715,0.640101 1.876002,3.352523 0.936816,0.313428 -0.224441,-0.276459 -0.604938,-0.334437 -0.936816,-0.313428 z" /></g></svg>
