<?xml version="1.0" encoding="UTF-8" standalone="no"?>
<!-- Created with Inkscape (http://www.inkscape.org/) -->

<svg
   width="35.266495mm"
   height="62.700645mm"
   viewBox="0 0 35.266495 62.700645"
   version="1.1"
   id="svg1"
   xml:space="preserve"
   xmlns="http://www.w3.org/2000/svg"
   xmlns:svg="http://www.w3.org/2000/svg"><defs
     id="defs1" /><g
     id="layer1"
     transform="translate(-161.9363,-20.749302)"><path
       id="path59"
       style="fill:#000000"
       d="m 179.47845,20.751705 c -3.04206,0.150965 -1.32871,3.335309 -0.65418,4.482596 -0.64407,1.273613 -1.15155,4.632165 -2.58435,2.131164 -1.15781,-1.549188 -2.57651,-2.417797 -2.68089,0.10747 -0.48931,3.724381 -4.69474,-2.67724 -4.98284,1.145949 0.92785,1.719364 1.89694,4.522285 3.22334,5.406344 4.15034,-1.31493 8.58192,-1.139067 12.85819,-0.695895 2.58883,1.908756 4.3923,-0.981869 5.18623,-3.076597 1.43309,-1.998528 -0.73541,-4.135638 -2.30358,-1.897328 -2.7926,2.214053 -1.46762,-5.313495 -3.74245,-1.935626 -1.07525,0.965418 -2.33151,3.119154 -2.74983,0.49796 -0.95642,-1.524835 -1.09042,-2.641649 0.24775,-3.704845 0.36764,-1.152731 -0.56864,-2.528894 -1.81739,-2.461192 z m 0.3266,14.155208 c -3.50444,-0.03699 -7.88375,0.305711 -9.79231,3.732177 -1.61906,2.960936 -0.64242,6.452356 -0.91702,9.658312 0.61532,3.465807 -1.55922,6.104631 -3.26782,8.784401 -0.83006,1.915927 -0.82762,4.781463 1.64014,4.834324 1.55685,1.703674 2.87267,3.653033 4.66135,5.137661 h 15.09587 c 2.16872,-1.683893 3.42836,-4.917532 6.03986,-5.63356 1.62479,-2.57241 -0.433,-5.564665 -1.92215,-7.691202 -1.77197,-2.923882 -0.90294,-6.424299 -1.07735,-9.645515 0.53376,-3.179548 -0.84422,-6.390347 -3.66652,-8.028334 -2.07358,-1.069015 -4.5101,-1.112835 -6.79405,-1.148264 z m -0.0501,2.696993 c 1.24303,3.087834 4.10234,5.712206 7.52524,5.937677 0.52973,2.057018 -0.0783,4.522515 -1.11291,6.419057 -1.69073,3.311734 -5.98704,4.746535 -9.35721,3.256395 -3.49556,-1.621745 -5.53853,-5.879963 -4.80422,-9.600897 3.00324,-0.562744 6.20846,-2.273902 7.38928,-5.343762 0.11992,-0.222812 0.23997,-0.445703 0.35982,-0.66847 z m 3.26802,18.956466 c 1.96888,1.16712 5.47771,2.457671 5.90642,4.502404 -0.92958,1.089561 -1.55959,3.261856 -3.09705,3.320891 h -13.03872 c -0.65588,-1.516488 -4.26021,-3.747004 -1.61258,-4.741449 2.29168,-1.687793 4.8373,-3.737074 7.81928,-2.618627 1.35408,0.07813 2.72208,-0.07758 4.02265,-0.463219 z m -17.44907,7.006807 c -1.34152,4.616256 -2.69718,9.237231 -3.6376,13.955714 0.35351,2.833218 3.51641,4.418009 5.54095,5.90538 2.29227,-0.06065 4.59199,-0.01077 6.88888,-0.02665 0.3949,-0.912646 0.85577,-2.187228 1.07928,-6.426501 0.20371,-2.082427 -1.71813,-5.35081 -0.0715,-6.603143 2.54571,0.709416 1.30887,4.737673 2.08611,6.747058 0.63884,1.84748 -0.26028,5.414839 1.28366,6.282586 0.84844,-0.230874 2.67813,0.630089 2.43807,-0.812482 0.42655,-4.065074 0.71173,-8.165298 1.66571,-12.151626 3.36828,-0.340603 0.70864,4.40669 1.04565,6.334762 l 1.43304,6.535204 c 1.883,0.200302 3.91899,0.03573 5.8641,0.09894 2.45775,-0.27839 4.28355,-2.721996 5.85495,-4.514084 0.68893,-2.824984 -1.08095,-5.701328 -1.46534,-8.528024 -0.77565,-1.855319 -0.81084,-5.741569 -2.16539,-6.260755 -2.58052,1.738776 -4.25874,5.536259 -7.82416,5.193637 -4.60687,0.189076 -9.28028,0.295414 -13.85071,-0.218416 -2.5713,-1.12847 -4.10979,-3.705629 -6.16571,-5.511607 z m 24.22281,6.434233 c 0.56718,2.470589 3.53293,5.538469 1.94577,7.756521 -1.00288,2.164653 -5.0859,4.650911 -4.43894,0.407829 0.6625,-2.737535 1.16536,-5.662845 2.49317,-8.16435 z m -20.30418,0.09147 c 1.42583,2.604878 1.96087,5.58867 2.69419,8.423273 0.39358,2.202486 -2.10278,3.177428 -3.03192,0.985329 -3.0198,-1.743495 -2.04779,-5.151917 -0.56172,-7.54671 0.26276,-0.637429 0.54848,-1.267458 0.89945,-1.861892 z" /></g></svg>
