<?xml version="1.0" encoding="UTF-8" standalone="no"?>
<!-- Created with Inkscape (http://www.inkscape.org/) -->

<svg
   width="50.13076mm"
   height="60.593788mm"
   viewBox="0 0 50.13076 60.593788"
   version="1.1"
   id="svg1"
   xml:space="preserve"
   xmlns="http://www.w3.org/2000/svg"
   xmlns:svg="http://www.w3.org/2000/svg"><defs
     id="defs1" /><g
     id="layer1"
     transform="translate(-223.19775,-22.866303)"><path
       id="path56"
       style="fill:#000000"
       d="m 248.27735,22.866305 c -0.75308,1.596298 -4.56403,2.529896 -2.92178,4.371457 3.18455,-0.575604 0.64858,1.696075 -0.95711,1.829258 -1.19289,0.268974 -5.14537,4.170313 -1.89881,2.368646 3.67553,-1.763248 8.13045,-1.988535 11.76048,0.02039 2.67274,1.028669 -1.89736,-2.958314 -3.31111,-2.949788 -2.0169,-0.109987 -1.76711,-2.034991 0.12065,-1.203843 1.58569,-0.661059 -1.017,-3.192809 -2.10795,-3.790868 -0.22812,-0.215085 -0.45625,-0.430169 -0.68437,-0.645254 z m -0.84077,9.055261 c -4.27967,0.272862 -7.77459,3.277696 -12.0305,3.749945 -1.4606,0.192882 -4.88405,-0.126077 -2.67113,2.125763 1.38845,2.117743 3.17376,3.918862 4.97871,5.677592 -0.43463,1.84331 -0.0892,3.728657 1.5447,4.761612 0.54451,3.549673 1.53841,7.500251 4.80339,9.53638 2.14902,1.847842 5.28642,1.943571 7.68654,0.512855 3.65375,-1.762241 4.91834,-5.957916 5.38741,-9.680084 2.45359,-1.575307 0.81338,-4.959487 3.08313,-6.655646 1.30676,-1.655882 4.72257,-4.262554 3.88504,-6.072593 -4.59637,0.021 -8.59536,-2.565841 -12.90034,-3.74768 -1.24132,-0.205016 -2.51101,-0.255481 -3.76695,-0.208144 z m 1.95388,1.49965 c 0.0135,0.97545 -0.33844,2.369766 1.09016,1.722718 1.2931,-0.534427 1.46702,0.214292 1.29109,1.364113 0.42845,1.391451 -1.13466,0.79134 -1.9766,0.912408 -0.96131,0.20669 0.19977,3.011218 -2.07036,1.979224 -0.81171,-0.736249 0.10487,-2.613905 -1.77387,-1.979224 -1.31125,0.358445 -1.51274,-0.392878 -1.32292,-1.535505 -0.42264,-1.450416 1.12311,-0.614284 1.95036,-0.613515 0.79328,-0.215727 0.45902,-2.471701 2.31478,-1.814335 0.16579,-0.01196 0.33157,-0.02392 0.49736,-0.03588 z m -1.23972,9.301758 c 2.59393,-0.02639 5.31123,-0.177651 7.6476,1.137398 -0.11122,2.988486 0.01,6.363661 -2.38622,8.569332 -1.0104,0.788367 -2.18335,-2.067663 -3.71258,-1.8303 -2.39014,-0.832825 -4.70403,0.503895 -6.3392,2.172569 -1.83615,-2.479917 -3.25694,-5.627419 -2.4293,-8.749428 1.93326,-1.785701 4.82322,-1.149357 7.2197,-1.299571 z m 0.10387,9.871748 c 2.11373,-0.405301 3.01369,3.333937 0.45718,1.350389 -0.92752,-0.07853 -3.61215,1.424168 -2.27335,-0.701813 0.49562,-0.426075 1.15903,-0.680415 1.81617,-0.648576 z m 4.39922,7.616073 c -1.01081,0.439921 -3.2699,0.439386 -3.52795,1.622938 0,7.189298 0,14.378597 0,21.567895 1.28719,-0.06063 3.12445,0.534084 2.6273,-1.587963 1.14721,-6.994839 2.95209,-13.859479 4.27099,-20.819455 -1.11328,-0.291324 -2.20481,-0.777892 -3.37034,-0.783415 z m -8.60619,0.02842 c -2.11311,-0.0091 -4.38435,1.04036 -2.96807,3.435119 1.3359,6.580262 3.00304,13.096498 4.07859,19.727292 1.55154,0.145345 2.95552,0.181292 2.18956,-1.918709 -0.1173,-6.80428 -0.0601,-13.60987 -0.0739,-20.41481 -1.07049,-0.281868 -2.11736,-0.739675 -3.22616,-0.828892 z m 14.70246,1.261422 c -1.14157,2.197405 -1.28563,4.990629 -2.00436,7.426712 -1.05711,4.819288 -2.15929,9.630302 -3.09869,14.474277 2.65362,0.01644 5.3068,-0.01566 7.95972,-0.07596 0.0691,-3.274953 -0.26962,-6.60491 0.1809,-9.838187 1.93554,2.123594 3.06293,5.191902 4.00364,7.968818 -0.20848,2.112468 1.20541,2.088014 2.78963,1.945334 1.58252,0 3.16505,0 4.74757,0 -1.11641,-6.972525 -4.068,-13.994855 -9.41878,-18.763325 -1.60101,-1.183378 -3.24654,-2.516596 -5.15963,-3.137669 z m -21.00441,0.193786 c -5.42109,1.772344 -9.05932,6.755581 -11.46922,11.695464 -1.49418,3.167132 -2.55339,6.547936 -3.07872,10.011739 2.37591,0 4.75182,0 7.12773,0 0.77473,-3.711174 2.47321,-7.144999 4.38061,-10.394715 0.0476,3.464907 0.0953,6.929812 0.1431,10.394715 2.65691,-0.07978 5.35037,0.165554 7.9828,-0.133721 -0.11197,-2.160187 -0.9317,-4.518748 -1.2977,-6.755002 -1.08335,-4.905217 -2.09311,-9.831961 -3.39124,-14.685671 l -0.13157,-0.117643 -0.26583,-0.01517 z" /></g></svg>
