<?xml version="1.0" encoding="UTF-8" standalone="no"?>
<!-- Created with Inkscape (http://www.inkscape.org/) -->

<svg
   width="47.553993mm"
   height="54.776249mm"
   viewBox="0 0 47.553993 54.776249"
   version="1.1"
   id="svg1"
   xml:space="preserve"
   xmlns="http://www.w3.org/2000/svg"
   xmlns:svg="http://www.w3.org/2000/svg"><defs
     id="defs1" /><g
     id="layer1"
     transform="translate(-19.925509,-153.27662)"><path
       id="path5"
       style="fill:#000000"
       d="m 41.489974,153.30589 c -2.580086,-0.38207 -1.26498,3.33297 0.259574,2.43227 0.08757,3.41116 -5.06824,1.34898 -6.445917,3.83945 -1.304382,0.70059 -4.215676,3.80788 -2.735517,4.52775 6.379623,-4.03405 15.464309,-4.34467 21.447194,0.61121 -0.111939,-3.39944 -3.370542,-6.13721 -6.546667,-6.67859 -2.769076,0.137 -4.540635,-2.39218 -1.15517,-3.20527 -0.172305,-3.54076 -3.435566,0.3373 -4.823497,-1.52682 z m 19.862914,39.1604 c -1.018712,-1.5032 -3.121752,-2.12722 -3.787534,-6.9e-4 -7.917366,7.92815 -22.610842,7.33194 -29.67972,-1.43616 -2.682923,1.19665 -3.698626,4.25986 -5.159637,6.60423 -1.484276,3.20361 -3.159666,6.6785 -2.73288,10.30403 2.221577,0 4.443154,0 6.664731,0 0.668387,-2.79257 1.66201,-5.66091 3.588204,-7.84081 1.410982,-0.51867 0.367416,2.96137 0.503627,4.1509 -0.314679,1.72488 0.079,4.34255 2.318116,3.68991 7.553715,0 15.107429,0 22.661144,0 0.295758,-2.65363 -0.494174,-5.45418 0.474914,-8.0056 2.699725,0.90144 2.775842,6.26162 4.903731,7.91898 2.012303,-0.18456 5.165033,0.89128 6.371918,-0.61246 -0.541469,-3.96784 -2.14862,-7.74104 -3.806265,-11.34743 -0.77345,-1.14163 -1.546899,-2.28327 -2.320349,-3.4249 z M 44.194202,162.36632 c -4.570953,-0.0905 -10.065963,0.85806 -12.511799,5.20599 -0.471316,3.30719 0.722842,6.83539 2.402126,9.60659 1.166976,2.62237 1.730688,5.75413 4.285103,7.47573 2.723435,2.20038 6.94962,2.29546 9.562943,-0.14312 2.22847,-1.81913 3.518928,-4.58287 3.955844,-7.38699 2.495816,-2.07862 1.967283,-5.62311 2.677091,-8.4625 -0.825779,-3.94529 -5.133943,-5.64704 -8.715631,-6.1408 -0.549067,-0.0775 -1.101792,-0.12885 -1.655677,-0.1549 z m -0.976168,4.72064 c 1.275984,2.94494 4.086601,4.97636 7.047089,6.01014 0.929528,2.78057 -1.077735,8.70084 -4.657371,6.22228 -2.657365,-1.77502 -5.259302,0.94525 -7.690525,0.55857 -1.80558,-1.54611 -3.064631,-5.3352 -1.718516,-7.2685 3.326372,-0.16799 5.848779,-2.47632 7.019323,-5.52245 z m -0.164848,13.74903 c 1.774234,-0.37655 2.226364,2.73898 0.171688,1.4338 -2.056246,1.04312 -2.534969,-0.89827 -0.610506,-1.33996 0.146273,-0.0313 0.292545,-0.0626 0.438818,-0.0938 z m -6.832658,5.32681 c -3.119744,2.11131 3.67982,2.6328 0.2829,-0.019 z m 13.499435,0.34003 c -3.467555,1.74682 3.667277,2.8604 0.29418,0.0245 z m -9.135877,2.16782 c -2.60269,0.98615 1.381604,2.72655 1.030712,0.77814 -0.279992,-0.29735 -0.595114,-0.71904 -1.030712,-0.77814 z m 5.106665,0.1354 c -2.963641,0.18451 0.518684,3.43718 0.821921,1.2385 -0.184592,-0.43704 -0.340305,-1.03368 -0.821921,-1.2385 z m -14.274581,0.36742 c -2.89657,2.30622 3.824307,2.53877 0.539381,0.11302 z m 23.039938,0.46198 c -3.096203,1.96077 3.554985,2.71643 0.772153,0.127 -0.222111,-0.15894 -0.518626,-0.0766 -0.772153,-0.127 z m -18.044377,3.62407 c -3.289042,1.69946 3.75076,2.7062 0.29947,0.0327 z m 13.341821,0.0315 c -3.29532,0.40402 1.872058,3.94389 0.869157,0.6935 -0.198934,-0.31243 -0.489838,-0.61744 -0.869157,-0.6935 z m -6.56239,1.02733 c -3.543607,1.2541 3.027409,3.11152 0.29027,0.0315 z" /></g></svg>
