<?xml version="1.0" encoding="UTF-8" standalone="no"?>
<!-- Created with Inkscape (http://www.inkscape.org/) -->

<svg
   width="38.372272mm"
   height="56.639385mm"
   viewBox="0 0 38.372272 56.639385"
   version="1.1"
   id="svg1"
   xml:space="preserve"
   xmlns="http://www.w3.org/2000/svg"
   xmlns:svg="http://www.w3.org/2000/svg"><defs
     id="defs1" /><g
     id="layer1"
     transform="translate(-92.477521,-151.74669)"><path
       id="path7"
       style="fill:#000000"
       d="m 111.4118,151.75663 c -3.87435,0.57778 2.35837,8.17153 -3.24192,6.66705 -1.97464,-4.38212 -2.78062,4.00981 -5.50885,0.0466 -4.088896,1.08152 2.7103,9.06621 6.1694,5.79901 5.06885,0.35413 14.85218,1.73954 12.24376,-5.99325 -3.15112,3.42301 -3.28773,-0.7468 -4.75168,-1.27038 -2.89434,4.54845 -5.28199,-1.41022 -2.83315,-3.81962 -0.2475,-0.88218 -1.15787,-1.52781 -2.07756,-1.42944 z m -0.709,14.2937 c -8.69102,-1.39351 -11.657412,7.30281 -10.37837,14.23375 0.90013,4.72457 -5.476196,6.96309 -6.461448,6.63715 2.13171,5.74835 10.935648,0.0591 10.984748,7.47224 4.09995,5.03616 0.78361,-2.81066 0.40106,-5.08512 3.42386,-1.95785 8.93575,-1.60717 12.47501,-0.33689 1.03817,2.03097 -3.98447,10.78807 0.76343,5.31605 -0.36997,-7.1982 10.60762,-1.96338 10.39587,-7.6913 -9.4342,0.36331 -3.45416,-13.18512 -8.0282,-17.95845 -2.65318,-2.62755 -6.69119,-2.51501 -10.1521,-2.58743 z m 0.99477,2.5771 c 1.15321,5.86812 11.95662,6.3646 6.05051,13.08425 -4.27482,9.41415 -20.052041,-3.10987 -11.07979,-7.26913 2.50673,-1.05917 3.92709,-3.46478 5.02928,-5.81512 z M 101.37882,191.394 c -8.009297,-1.9927 -13.379222,11.66188 -3.722156,12.3581 3.594606,-0.8226 6.855916,-3.39543 6.560606,2.47135 1.65694,3.44017 7.16451,1.07851 10.60902,1.71425 5.85775,2.82648 3.38589,-8.7804 7.17189,-5.09542 7.86717,5.07132 13.22713,-8.72844 3.95082,-10.66842 -6.01107,-3.80708 -6.74537,12.03723 -13.28159,4.81257 -0.94022,-6.69231 -3.57137,6.07881 -7.98665,0.7694 -1.78402,-1.62839 -2.46974,-4.16989 -3.30194,-6.36183 z m 12.62869,3.49695 c -2.4216,2.05845 3.72881,1.3934 0,0 z m -4.98522,0.006 c -2.90308,1.73849 3.32938,1.6634 0,0 z m -13.950057,10.08724 c -4.020732,5.57693 8.757317,2.22159 2.317505,0.26595 -0.773108,-0.0723 -1.566511,-0.0312 -2.317505,-0.26595 z m 33.185057,0.008 c -3.53603,-1.20405 -6.3225,3.17213 -1.44807,2.94552 2.74028,0.89877 2.72884,-1.30747 1.44807,-2.94552 z" /></g></svg>
