<?xml version="1.0" encoding="UTF-8" standalone="no"?>
<!-- Created with Inkscape (http://www.inkscape.org/) -->

<svg
   width="40.452312mm"
   height="61.830818mm"
   viewBox="0 0 40.452312 61.830818"
   version="1.1"
   id="svg1"
   xml:space="preserve"
   xmlns="http://www.w3.org/2000/svg"
   xmlns:svg="http://www.w3.org/2000/svg"><defs
     id="defs1" /><g
     id="layer1"
     transform="translate(-91.498808,-21.570776)"><path
       id="path58"
       style="fill:#000000"
       d="m 110.89246,21.570776 c 0.34333,1.121124 -0.303,3.368276 -1.83888,1.892204 -0.53011,0.64808 -0.95461,3.012302 0.5999,2.158423 1.77334,-0.777589 0.73919,3.361934 2.83248,1.431949 -0.75949,-2.51861 3.03763,-0.443162 2.00677,-2.91529 0.22062,-1.529754 -2.42246,0.944874 -1.89187,-1.26969 0.27012,-1.393461 -0.86062,-0.948696 -1.7084,-1.297596 z m -0.40825,7.573698 c -2.24497,0.156126 -5.31877,0.394573 -5.92611,3.037658 -0.50669,2.965071 0.4195,5.932214 1.47212,8.677906 1.38154,-0.185014 3.15567,0.507496 4.19523,-0.560222 0.53718,-2.902783 0.15559,-5.909621 0.25876,-8.859436 z m 2.30735,0.0739 c 0.49454,3.814417 0.292,7.672766 0.33994,11.509375 h 4.3093 c 0.92247,-2.884972 2.28215,-6.03978 1.25159,-9.04989 -1.00489,-2.312647 -3.70348,-2.547697 -5.90083,-2.459485 z m -9.53068,0.340031 c -2.41297,0.548616 -5.035658,1.783781 -5.634339,4.434087 -0.343923,2.664865 1.12292,5.152976 2.290972,7.444176 1.490017,0.846794 4.924717,-0.177627 3.156877,-2.466943 -0.78303,-2.624762 -1.75657,-5.793314 -0.39461,-8.371402 z m 17.01912,0.03152 c 0.71915,1.548783 1.91012,4.472088 0.79994,6.730899 -0.42734,1.629107 -1.01517,3.209312 -1.53785,4.808963 1.99462,0.78876 4.3631,1.122717 4.94455,-1.598901 1.20692,-2.272615 2.30566,-5.486821 0.1824,-7.594064 -1.14335,-1.205321 -2.77793,-2.00322 -4.38904,-2.346897 z m -8.35453,13.520622 c -2.93532,0.310379 0.59256,4.05443 0.93298,1.020107 0.0102,-0.519477 -0.41543,-0.978491 -0.93298,-1.020107 z m 4.68447,0.144694 c -3.00938,0.700928 1.46568,3.656956 0.81569,0.720331 -0.10248,-0.363311 -0.41272,-0.712116 -0.81569,-0.720331 z m -9.64541,0.0041 c -2.88121,0.631663 0.97743,3.947042 0.98964,0.84437 -0.0708,-0.471881 -0.49454,-0.86574 -0.98964,-0.84437 z m -4.5098,0.519865 c -3.010639,0.347712 0.58182,3.773328 1.00865,0.919419 -0.0349,-0.509319 -0.49788,-0.921546 -1.00865,-0.919419 z m 18.1715,0.02945 c -2.2379,1.159702 1.15955,3.256195 1.48006,0.99858 -0.0415,-0.729377 -0.85649,-1.048859 -1.48006,-0.99858 z m -6.54327,3.689181 c -2.38942,0.389455 1.99896,3.563445 3.3455,2.31416 3.12028,-2.151395 1.59458,3.079804 -0.27609,3.694023 -1.82612,1.74215 -4.3095,0.473988 -6.49909,0.800216 -2.62296,0.842943 -5.42112,-1.226377 -6.393,-3.558413 -0.78498,-2.999742 3.85495,0.643768 4.96814,-1.94037 2.55338,-2.200035 -3.35193,-0.901696 -4.69183,-1.118617 -2.2903,-0.271023 -5.091954,0.542711 -3.84918,3.462529 0.38029,2.244301 2.54939,2.959407 3.8599,3.439019 1.74875,2.751934 4.68586,5.715421 8.2629,4.917012 3.04075,-0.535632 5.21753,-3.02364 6.50514,-5.674121 1.85267,1.402654 3.83054,-2.128649 3.59454,-4.056981 0.0341,-3.234038 -3.97305,-1.67251 -6.04457,-2.158566 -0.92724,-0.04269 -1.85344,-0.128615 -2.78236,-0.119891 z m 5.13302,7.622791 c -1.24165,3.250709 -2.90996,6.787501 -6.4154,8.069558 -0.80043,0.753004 -1.62244,0.200803 -2.44189,-0.196583 -3.26263,-1.34041 -5.04561,-4.569281 -6.0524,-7.773757 -2.47795,1.309963 -5.160576,3.822007 -4.21837,6.913761 1.31181,4.189723 4.78398,7.487729 8.68218,9.342247 1.72555,-1.190586 4.01396,-1.106175 5.74591,0.1001 3.92824,-2.211255 8.02287,-5.344955 8.96661,-10.000999 0.5234,-3.028731 -2.09731,-4.930578 -4.26664,-6.454327 z m 6.75618,7.134965 c 0.0267,1.847459 -2.22501,3.441513 -1.57774,4.976957 2.20887,1.543718 3.3616,-1.458717 1.70965,-2.038295 1.99657,0.788996 3.15421,-1.379488 0.88525,-2.162006 -0.33905,-0.258885 -0.67811,-0.517771 -1.01716,-0.776656 z m -28.466484,0.01964 c -1.377534,0.701765 -3.809965,2.751863 -0.764294,3.109887 0.534519,-0.177449 -1.171137,2.422376 0.9285,2.149632 2.890498,-0.93762 -0.725347,2.092938 1.67827,2.555399 1.086758,0.251401 3.004308,-1.122045 1.401438,-1.949205 -1.407156,-1.551862 -2.451064,-3.449894 -3.1395,-5.418184 -0.03481,-0.149176 -0.06961,-0.298353 -0.104414,-0.447529 z m 26.073864,5.129919 c -2.98886,0.654314 -0.16219,4.483791 1.33586,1.931267 0.35679,-0.836931 -0.59844,-1.749024 -1.33586,-1.931267 z m 4.91701,0.310059 c -1.48946,1.954885 -3.77421,3.550207 -3.49488,6.313529 -0.48384,3.12739 -1.00212,6.249305 -1.50998,9.372852 h 8.45943 c -1.05666,-5.244085 -2.05695,-10.528294 -3.45457,-15.686381 z m -33.515784,0.04754 c -1.269648,5.187904 -2.409888,10.40679 -3.481958,15.638839 h 8.521962 C 99.378014,79.288386 98.65116,75.188921 97.960946,71.083516 96.967694,69.976468 95.9743,68.869546 94.980766,67.762751 Z m 6.809404,1.81901 c -2.481995,1.572594 -0.17961,5.224959 -0.22637,7.599701 0.88189,1.773623 -0.0417,5.640658 1.79672,6.220128 h 3.69134 l 11.16604,4e-6 h 2.69151 c 0.66525,-4.005974 1.46489,-7.993822 2.13168,-11.99532 -0.17422,-2.461595 -3.56399,-1.767688 -2.91277,0.554683 -1.88546,-0.912103 -2.89011,1.74842 -4.54037,2.015567 0.046,3.104712 -3.99448,5.207421 -6.3487,2.98629 -1.35842,-1.015923 -0.9423,-4.811804 -3.50416,-3.069991 1.53999,-1.641618 -2.2934,-2.312374 -2.55795,-1.592491 0.40197,-1.073935 -0.24132,-2.517222 -1.38697,-2.718571 z m 10.02988,2.765206 c -4.03055,6.6e-5 -1.14466,6.153173 1.41911,3.137405 0.94197,-1.168488 0.32058,-3.361802 -1.41911,-3.137405 z" /></g></svg>
